# xmcd CD database file
# Generated: Fri Aug 29 16:45:58 2003 by KSCD
# 
# Track frame offsets:
#       150
#       11492
#       26907
#       44612
#       69900
#       88735
#       101060
#       114225
#       126425
#       140492
#       156702
#       175035
#       196622
#       221240
#       239910
#       254017
#       269265
#       284995
#       303327
#
# Disc length: 4344 seconds
#
# Revision: 1
# Processed by: cddbd v1.4PL0 Copyright (c) Steve Scherf et al.
# Submitted via: Kscd 1.3.3
#
DISCID=2d10f613
DTITLE=Madalin Voicu - Constelatia gypsy music vol 1
DYEAR=1900
DGENRE=
TTITLE0=Of, of, of, mai spritule (Romica Puceanu)
TTITLE1=Tinerete, Tinerete (Constantin Eftimiu)
TTITLE2=Saraiman (Romica Puceanu)
TTITLE3=Ioane, Ioane (solo tambal: Ion Miu)
TTITLE4=Omul bun n-are noroc (Gabi Lunca)
TTITLE5=Niculai, Niculaita (Constantin Eftimiu)
TTITLE6=De cand te iubesc pe tine (Romica Puceanu)
TTITLE7=Hora (solo vioara: Tudor Pana)
TTITLE8=Neicuta, mi-aduc aminte (Gabi Lunca)
TTITLE9=Sapte vai si-o vale adanca (Constantin Eftimiu)
TTITLE10=Blestemat sa fii de stele (Romica Puceanu)
TTITLE11=Ca la acordeon (solo acordeon: Ionica Minune)
TTITLE12=Da, mama, cu biciu-n mine (Gabi Lunca)
TTITLE13=Lelita floare (Dona Dumitru Siminica)
TTITLE14=Jalea tiganului (solo vioara: Tudor Pana)
TTITLE15=I-auzi, lele, popa toaca (Romica Puceanu)
TTITLE16=Hora lautareasca (solo tambal: Toni Iordache)
TTITLE17=Intr-o zi la poarta mea (Gabi Lunca)
TTITLE18=La Ciolpani cu frunza lata (Constantin Eftimiu)
EXTD=
EXTT0=
EXTT1=
EXTT2=
EXTT3=
EXTT4=
EXTT5=
EXTT6=
EXTT7=
EXTT8=
EXTT9=
EXTT10=
EXTT11=
EXTT12=
EXTT13=
EXTT14=
EXTT15=
EXTT16=
EXTT17=
EXTT18=
PLAYORDER=
